<svg height='300px' width='300px' fill="#FFFFFF" xmlns="http://www.w3.org/2000/svg"
  xmlns:xlink="http://www.w3.org/1999/xlink" version="1.1" x="0px" y="0px" viewBox="0 0 80 80"
  enable-background="new 0 0 80 80" xml:space="preserve">
  <path
    d="M67,17H13C7.486,17,3,21.486,3,27v26c0,5.514,4.486,10,10,10h54c5.514,0,10-4.486,10-10V27C77,21.486,72.514,17,67,17z   M73,53c0,3.309-2.691,6-6,6H13c-3.309,0-6-2.691-6-6V38.317C7.909,38.75,8.922,39,9.994,39h21.531c0.418,0,0.786,0.252,0.917,0.629  C33.561,42.842,36.598,45,40,45s6.439-2.158,7.559-5.372C47.688,39.252,48.057,39,48.475,39l21.531,0  c1.072,0,2.085-0.25,2.994-0.683V53z M73,32c0,1.654-1.343,3-2.994,3l-21.531,0c-2.119,0-4.006,1.333-4.694,3.314  C43.221,39.92,41.702,41,40,41s-3.221-1.08-3.779-2.685C35.531,36.333,33.645,35,31.525,35H9.994C8.343,35,7,33.654,7,32v-5  c0-3.309,2.691-6,6-6h54c3.309,0,6,2.691,6,6V32z">
  </path>
  <path d="M40,31c-1.104,0-2,0.896-2,2v4c0,1.104,0.896,2,2,2s2-0.896,2-2v-4C42,31.896,41.104,31,40,31z"></path>
  <path
    d="M35,7c-3.309,0-6,2.691-6,6c0,1.104,0.896,2,2,2s2-0.896,2-2c0-1.103,0.897-2,2-2h10c1.103,0,2,0.897,2,2  c0,1.104,0.896,2,2,2s2-0.896,2-2c0-3.309-2.691-6-6-6H35z">
  </path>
</svg>