<svg height='300px' width='300px' fill="#ffffff" xmlns:dc="http://purl.org/dc/elements/1.1/"
  xmlns:cc="http://creativecommons.org/ns#" xmlns:rdf="http://www.w3.org/1999/02/22-rdf-syntax-ns#"
  xmlns:svg="http://www.w3.org/2000/svg" xmlns="http://www.w3.org/2000/svg"
  xmlns:sodipodi="http://sodipodi.sourceforge.net/DTD/sodipodi-0.dtd"
  xmlns:inkscape="http://www.inkscape.org/namespaces/inkscape" viewBox="0 0 26.458333 26.458334" version="1.1" x="0px"
  y="0px">
  <g transform="translate(0,-270.54165)">
    <path
      style="color:#000000;font-style:normal;font-variant:normal;font-weight:normal;font-stretch:normal;font-size:medium;line-height:normal;font-family:sans-serif;font-variant-ligatures:normal;font-variant-position:normal;font-variant-caps:normal;font-variant-numeric:normal;font-variant-alternates:normal;font-feature-settings:normal;text-indent:0;text-align:start;text-decoration:none;text-decoration-line:none;text-decoration-style:solid;text-decoration-color:#000000;letter-spacing:normal;word-spacing:normal;text-transform:none;writing-mode:lr-tb;direction:ltr;text-orientation:mixed;dominant-baseline:auto;baseline-shift:baseline;text-anchor:start;white-space:normal;shape-padding:0;clip-rule:nonzero;display:inline;overflow:visible;visibility:visible;opacity:1;isolation:auto;mix-blend-mode:normal;color-interpolation:sRGB;color-interpolation-filters:linearRGB;solid-color:#000000;solid-opacity:1;vector-effect:none;fill:#ffffff;fill-opacity:1;fill-rule:nonzero;stroke:none;stroke-width:3.99999976;stroke-linecap:round;stroke-linejoin:round;stroke-miterlimit:4;stroke-dasharray:none;stroke-dashoffset:0;stroke-opacity:1;paint-order:stroke markers fill;color-rendering:auto;image-rendering:auto;shape-rendering:auto;text-rendering:auto;enable-background:accumulate"
      d="m 36.998047,21.013672 c -2.667968,0 -2.667968,4.001953 0,4.001953 h 0.996094 v 6.427734 l -6.101563,9.689453 c -2.686135,-1.3453 -5.705132,-2.121093 -8.90625,-2.121093 -11.022005,0 -20.0039061,8.981897 -20.0039061,20.003906 0,11.022009 8.9819011,19.998047 20.0039061,19.998047 10.347086,0 18.890925,-7.910626 19.898438,-17.998047 h 7.113281 c 0.725073,-0.0032 1.391654,-0.398485 1.742187,-1.033203 l 13.054688,-23.494141 2.302734,5.181641 c -6.01205,3.455745 -10.080078,9.932662 -10.080078,17.345703 0,11.022009 8.976041,19.998047 19.998047,19.998047 11.022006,0 19.998047,-8.976038 19.998047,-19.998047 0,-11.022009 -8.976041,-20.003906 -19.998047,-20.003906 -2.190471,0 -4.295104,0.366409 -6.269531,1.021484 L 66.998047,31.601562 V 25 h 5.005859 C 73.700506,25 75,26.301493 75,27.998047 c 0,1.69663 -1.299494,3.003906 -2.996094,3.003906 -2.608582,0.05745 -2.608582,3.942548 0,4 3.843406,0 6.998047,-3.160505 6.998047,-7.003906 C 79.001953,24.154645 75.847312,21 72.003906,21 l -7.035156,-0.01563 c -1.345963,-0.003 -1.972656,0.925186 -1.972656,2.029297 v 6.998047 h -21 v -4.996094 h 0.996094 c 2.667968,0 2.667968,-4.001953 0,-4.001953 z m 4.103515,13 h 20.5 L 48.816406,57.015625 h -5.93164 C 42.328214,51.442879 39.460953,46.546569 35.271484,43.267578 Z m -18.115234,8.998047 c 2.42697,0 4.716399,0.551271 6.773438,1.511719 l -8.455078,13.429687 c -0.833722,1.330106 0.119658,3.058313 1.689453,3.0625 h 15.853515 c -0.980523,7.907997 -7.680021,13.996094 -15.861328,13.996094 -8.860245,0 -16.0039057,-7.135861 -16.0039061,-15.996094 0,-8.860233 7.1436611,-16.003906 16.0039061,-16.003906 z m 54.029297,0 c 8.860244,0 15.996094,7.143673 15.996094,16.003906 0,8.860233 -7.13585,15.996094 -15.996094,15.996094 -8.860244,0 -16.003906,-7.135861 -16.003906,-15.996094 0,-5.818317 3.090595,-10.880598 7.714843,-13.681641 l 6.44336,14.494141 c 1.050754,2.519492 4.821301,0.842797 3.654297,-1.625 L 72.375,43.697266 c 1.468431,-0.442057 3.025174,-0.685547 4.640625,-0.685547 z m -43.869141,3.628906 c 3.082756,2.533103 5.183777,6.201663 5.701172,10.375 H 26.611328 Z"
      transform="matrix(0.26458333,0,0,0.26458333,0,270.54165)"></path>
  </g>
</svg>