<svg height='300px' width='300px' fill="#ffffff" xmlns="http://www.w3.org/2000/svg"
  xmlns:xlink="http://www.w3.org/1999/xlink" version="1.1" x="0px" y="0px" viewBox="0 0 100 100"
  style="enable-background:new 0 0 100 100;" xml:space="preserve">
  <g>
    <g>
      <g>
        <g>
          <path
            d="M80.77,27.65c-0.51,0-1.03-0.2-1.42-0.59c-0.78-0.78-0.78-2.05,0.01-2.83l4.25-4.23l-3.48-3.46l-4.44,4.42      c-0.79,0.78-2.05,0.77-2.83-0.01c-0.78-0.78-0.78-2.05,0.01-2.83l5.85-5.82c0.78-0.78,2.04-0.78,2.82,0l6.31,6.28      c0.38,0.38,0.59,0.89,0.59,1.42s-0.21,1.04-0.59,1.42l-5.67,5.65C81.79,27.46,81.28,27.65,80.77,27.65z">
          </path>
        </g>
      </g>
    </g>
  </g>
  <g>
    <g>
      <g>
        <g>
          <path
            d="M35.55,60.11c-0.51,0-1.03-0.2-1.42-0.59c-0.78-0.78-0.78-2.05,0.01-2.83L56.63,34.3c0.78-0.78,2.05-0.78,2.83,0.01      c0.78,0.78,0.78,2.05-0.01,2.83L36.96,59.52C36.57,59.91,36.06,60.11,35.55,60.11z">
          </path>
        </g>
      </g>
    </g>
  </g>
  <g>
    <g>
      <g>
        <g>
          <path
            d="M19.88,88.27c-0.51,0-1.02-0.19-1.41-0.58l-6.31-6.28c-0.38-0.38-0.59-0.89-0.59-1.42c0-0.53,0.21-1.04,0.59-1.42      l5.99-5.96c0.78-0.78,2.05-0.78,2.83,0.01s0.78,2.05-0.01,2.83l-4.56,4.54l3.48,3.46l4.34-4.32c0.78-0.78,2.05-0.78,2.83,0.01      c0.78,0.78,0.78,2.05-0.01,2.83l-5.75,5.72C20.9,88.08,20.39,88.27,19.88,88.27z">
          </path>
        </g>
      </g>
    </g>
  </g>
  <g>
    <g>
      <g>
        <g>
          <path
            d="M41.92,66.33c-0.53,0-1.06-0.21-1.45-0.62c-0.76-0.8-0.73-2.07,0.07-2.83l22.32-21.18c0.8-0.76,2.07-0.73,2.83,0.07      c0.76,0.8,0.73,2.07-0.07,2.83L43.3,65.78C42.91,66.15,42.41,66.33,41.92,66.33z">
          </path>
        </g>
      </g>
    </g>
  </g>
  <g>
    <g>
      <g>
        <g>
          <g>
            <g>
              <g>
                <path
                  d="M35.48,89.84c-1.88,0-3.76-0.71-5.19-2.14L12.15,69.64C10.76,68.26,10,66.42,10,64.46c0-1.96,0.76-3.8,2.15-5.18         l0.53-0.52c2.86-2.85,7.52-2.85,10.38,0l18.14,18.06l0,0c1.38,1.38,2.15,3.22,2.15,5.18s-0.76,3.8-2.15,5.18l-0.53,0.52         C39.23,89.12,37.35,89.84,35.48,89.84z M17.86,60.62c-0.86,0-1.71,0.33-2.37,0.98l-0.53,0.52C14.35,62.74,14,63.57,14,64.46         s0.34,1.72,0.97,2.34l18.14,18.06c1.3,1.3,3.43,1.3,4.74,0l0.53-0.52c0.62-0.62,0.97-1.45,0.97-2.34         c0-0.89-0.34-1.72-0.97-2.35L20.23,61.59C19.58,60.94,18.72,60.62,17.86,60.62z">
                </path>
              </g>
            </g>
          </g>
        </g>
      </g>
    </g>
    <g>
      <g>
        <g>
          <g>
            <g>
              <g>
                <path
                  d="M80.36,57.73c-1.88,0-3.76-0.71-5.19-2.14v0L44.39,24.96c-1.38-1.38-2.15-3.22-2.15-5.18c0-1.96,0.76-3.8,2.15-5.18         l0.53-0.52c2.86-2.85,7.52-2.85,10.38,0l30.78,30.64c1.38,1.38,2.15,3.22,2.15,5.18c0,1.96-0.76,3.8-2.15,5.18l-0.52,0.52         C84.12,57.02,82.24,57.73,80.36,57.73z M77.99,52.76c1.31,1.3,3.43,1.3,4.74,0l0.52-0.52c0.62-0.62,0.97-1.45,0.97-2.34         c0-0.89-0.34-1.72-0.97-2.34L52.47,16.91c-1.3-1.3-3.43-1.3-4.73,0l-0.53,0.52c-0.62,0.62-0.97,1.45-0.97,2.34         s0.34,1.72,0.97,2.34L77.99,52.76z">
                </path>
              </g>
            </g>
          </g>
        </g>
      </g>
      <g>
        <g>
          <g>
            <g>
              <g>
                <path
                  d="M82.14,43.38c-1.88,0-3.76-0.71-5.19-2.13c0,0,0,0,0,0L58.81,23.18c-1.38-1.38-2.15-3.22-2.15-5.18         c0-1.96,0.76-3.8,2.15-5.18l0.53-0.53c2.86-2.85,7.52-2.85,10.38,0l18.14,18.06c1.38,1.38,2.15,3.22,2.15,5.18         c0,1.96-0.76,3.8-2.15,5.18l-0.52,0.52C85.9,42.67,84.02,43.38,82.14,43.38z M79.77,38.41c1.3,1.3,3.43,1.3,4.74,0l0.52-0.52         c0.63-0.62,0.97-1.46,0.97-2.34s-0.34-1.72-0.97-2.35L66.89,15.14c-1.3-1.3-3.43-1.3-4.73,0l-0.53,0.52         c-0.63,0.62-0.97,1.45-0.97,2.34c0,0.89,0.34,1.72,0.97,2.34L79.77,38.41z">
                </path>
              </g>
            </g>
          </g>
        </g>
      </g>
    </g>
  </g>
  <g>
    <g>
      <g>
        <g>
          <g>
            <path
              d="M49.9,88.06c-1.88,0-3.76-0.71-5.19-2.13L13.93,55.28c-1.38-1.38-2.15-3.22-2.15-5.18s0.76-3.8,2.15-5.18l0.53-0.52       c2.86-2.85,7.52-2.85,10.38,0l30.78,30.64c1.38,1.38,2.15,3.22,2.15,5.18c0,1.96-0.76,3.8-2.15,5.18l-0.52,0.52       C53.65,87.35,51.77,88.06,49.9,88.06z M19.64,46.26c-0.86,0-1.71,0.33-2.37,0.97l-0.53,0.52c-0.62,0.62-0.97,1.46-0.97,2.34       s0.34,1.72,0.97,2.34l30.78,30.64c1.31,1.3,3.43,1.3,4.74,0l0.52-0.52c0.63-0.62,0.97-1.46,0.97-2.35       c0-0.89-0.34-1.72-0.97-2.34c0,0,0,0,0,0L22.01,47.24C21.36,46.59,20.5,46.26,19.64,46.26z">
            </path>
          </g>
        </g>
      </g>
    </g>
  </g>
</svg>