<svg height='300px' width='300px' fill="#FFFFFF" xmlns="http://www.w3.org/2000/svg"
  xmlns:xlink="http://www.w3.org/1999/xlink" version="1.1" x="0px" y="0px" viewBox="0 0 64 64"
  style="enable-background:new 0 0 64 64;" xml:space="preserve">
  <path
    d="M60,30c-0.738,0-1.376,0.405-1.723,1H40v2h18.277c0.346,0.595,0.984,1,1.723,1c1.105,0,2-0.895,2-2  C62,30.895,61.105,30,60,30z">
  </path>
  <path
    d="M60,39c-0.738,0-1.376,0.405-1.723,1h-4.863l-4-4H40v2h8.586l4,4h5.691c0.346,0.595,0.984,1,1.723,1c1.105,0,2-0.895,2-2  C62,39.895,61.105,39,60,39z">
  </path>
  <path
    d="M60,48c-0.738,0-1.376,0.405-1.723,1h-4.863l-8-8H40v2h4.586l8,8h5.691c0.346,0.595,0.984,1,1.723,1c1.105,0,2-0.895,2-2  C62,48.895,61.105,48,60,48z">
  </path>
  <path
    d="M60,61c1.105,0,2-0.895,2-2c0-1.105-0.895-2-2-2c-0.738,0-1.376,0.405-1.723,1h-3.863l-12-12H40v2h1.586l12,12h4.691  C58.624,60.595,59.262,61,60,61z">
  </path>
  <path
    d="M60,21c-0.738,0-1.376,0.405-1.723,1h-5.691l-4,4H40v2h9.414l4-4h4.863c0.346,0.595,0.984,1,1.723,1c1.105,0,2-0.895,2-2  C62,21.895,61.105,21,60,21z">
  </path>
  <path
    d="M60,12c-0.738,0-1.376,0.405-1.723,1h-5.691l-8,8H40v2h5.414l8-8h4.863c0.346,0.595,0.984,1,1.723,1c1.105,0,2-0.895,2-2  C62,12.895,61.105,12,60,12z">
  </path>
  <path
    d="M60,3c-0.738,0-1.376,0.405-1.723,1h-4.691l-12,12H40v2h2.414l12-12h3.863C58.624,6.595,59.262,7,60,7c1.105,0,2-0.895,2-2  C62,3.895,61.105,3,60,3z">
  </path>
  <path
    d="M24,49c1.862,0,3.412-1.278,3.859-3H34v2c0,1.105,0.895,2,2,2s2-0.895,2-2V15c0-1.105-0.895-2-2-2s-2,0.895-2,2v3h-6.141  c-0.446-1.722-1.997-3-3.859-3c-0.97,0-1.847,0.359-2.539,0.933L9.718,7.452C9.895,7.001,10,6.514,10,6c0-2.209-1.791-4-4-4  S2,3.791,2,6c0,2.209,1.791,4,4,4c0.97,0,1.847-0.359,2.539-0.933l11.743,8.481c-0.057,0.146-0.101,0.298-0.14,0.452H9.859  C9.413,16.278,7.862,15,6,15c-2.209,0-4,1.791-4,4c0,2.209,1.791,4,4,4c0.97,0,1.847-0.359,2.539-0.933l4.753,3.433l-4.753,3.433  C7.847,28.359,6.97,28,6,28c-2.209,0-4,1.791-4,4c0,2.209,1.791,4,4,4c0.97,0,1.847-0.359,2.539-0.933l4.753,3.433l-4.753,3.433  C7.847,41.359,6.97,41,6,41c-2.209,0-4,1.791-4,4c0,2.209,1.791,4,4,4c1.862,0,3.412-1.278,3.859-3h10.283  c0.049,0.19,0.099,0.381,0.174,0.559l-11.4,8.718C8.185,54.496,7.154,54,6,54c-2.209,0-4,1.791-4,4c0,2.209,1.791,4,4,4s4-1.791,4-4  c0-0.326-0.05-0.638-0.123-0.941l11.668-8.922C22.224,48.669,23.069,49,24,49z M27.859,44c-0.446-1.722-1.997-3-3.859-3  c-0.97,0-1.847,0.359-2.539,0.933L16.708,38.5l4.753-3.433C22.153,35.641,23.03,36,24,36c1.862,0,3.412-1.278,3.859-3H34v11H27.859z   M27.859,20H34v11h-6.141c-0.446-1.722-1.997-3-3.859-3c-0.97,0-1.847,0.359-2.539,0.933L16.708,25.5l4.753-3.433  C22.153,22.641,23.03,23,24,23C25.862,23,27.412,21.722,27.859,20z M9.718,20.452c0.057-0.146,0.1-0.298,0.14-0.452h10.283  c0.04,0.154,0.083,0.306,0.14,0.452L15,24.267L9.718,20.452z M20.282,30.548c-0.057,0.146-0.101,0.298-0.14,0.452H9.859  c-0.04-0.154-0.083-0.306-0.14-0.452L15,26.733L20.282,30.548z M9.718,33.452c0.057-0.146,0.1-0.298,0.14-0.452h10.283  c0.04,0.154,0.083,0.306,0.14,0.452L15,37.267L9.718,33.452z M20.282,43.548c-0.057,0.146-0.101,0.298-0.14,0.452H9.859  c-0.04-0.154-0.083-0.306-0.14-0.452L15,39.733L20.282,43.548z">
  </path>
  <rect x="30" y="23" width="2" height="2"></rect>
  <rect x="30" y="27" width="2" height="2"></rect>
  <rect x="30" y="35" width="2" height="2"></rect>
  <rect x="30" y="39" width="2" height="2"></rect>
</svg>