<svg height='300px' width='300px' fill="#ffffff" xmlns="http://www.w3.org/2000/svg" viewBox="0 0 64 64" x="0px" y="0px">
  <title>bicycle, bike, play, sport</title>
  <g>
    <path data-name="bicycle, bike, play, sport"
      d="M51,28a13.1,13.1,0,0,0-2.6.26L44.33,14H53a2,2,0,0,1,0,4H50a1,1,0,0,0,0,2h3a4,4,0,0,0,0-8H43a1,1,0,0,0-.8.4,1,1,0,0,0-.16.87L44.53,22H22.85l-1.32-3h2.31a2.16,2.16,0,0,0,.68-4.21l-6.67-2.23a2.17,2.17,0,0,0-2.85,2v2.23A2.16,2.16,0,0,0,17.16,19h2.19L21,22.74l-4.11,6.85a13,13,0,1,0,9,14.41H31a1,1,0,0,0,.82-.43l13.4-19.15,1.26,4.41A13,13,0,1,0,51,28ZM17,16.84V14.61a.15.15,0,0,1,.07-.13.16.16,0,0,1,.09,0h.05l6.68,2.22a.17.17,0,0,1,.11.16.16.16,0,0,1-.16.16H17.16A.16.16,0,0,1,17,16.84ZM13,53a11,11,0,0,1,0-22,10.89,10.89,0,0,1,2.81.38L9.14,42.49A1,1,0,0,0,10,44H23.81A11,11,0,0,1,13,53Zm4.72-20.92A11,11,0,0,1,24,42H11.77Zm1-1.72L22,25l7.49,17H26A13,13,0,0,0,18.75,30.36ZM31.2,41,23.73,24H43.08ZM51,52a11,11,0,0,1-4-21.25l3,10.52A1,1,0,0,0,51,42a.84.84,0,0,0,.27,0A1,1,0,0,0,52,40.73L49,30.2a10.71,10.71,0,0,1,2-.2,11,11,0,0,1,0,22Z">
    </path>
  </g>
</svg>