<svg height='300px' width='300px' fill="#ffffff" xmlns="http://www.w3.org/2000/svg"
  xmlns:xlink="http://www.w3.org/1999/xlink" version="1.1" x="0px" y="0px" viewBox="0 0 48 48"
  style="enable-background:new 0 0 48 48;" xml:space="preserve">
  <path
    d="M41.3339844,20.6660156c0.5527344,0,1-0.4477539,1-1s-0.4472656-1-1-1H38V12h3.3339844c0.5527344,0,1-0.4477539,1-1  s-0.4472656-1-1-1H38V6.6660156c0-0.5522461-0.4472656-1-1-1H11c-0.5522461,0-1,0.4477539-1,1V10H6.6660156  c-0.5522461,0-1,0.4477539-1,1s0.4477539,1,1,1H10v6.6660156H6.6660156c-0.5522461,0-1,0.4477539-1,1s0.4477539,1,1,1H10v6.6669922  H6.6660156c-0.5522461,0-1,0.4472656-1,1s0.4477539,1,1,1H10v6.6660156H6.6660156c-0.5522461,0-1,0.4472656-1,1s0.4477539,1,1,1H10  v3.3349609c0,0.5527344,0.4477539,1,1,1h26c0.5527344,0,1-0.4472656,1-1v-3.3349609h3.3339844c0.5527344,0,1-0.4472656,1-1  s-0.4472656-1-1-1H38v-6.6660156h3.3339844c0.5527344,0,1-0.4472656,1-1s-0.4472656-1-1-1H38v-6.6669922H41.3339844z   M27.1640625,7.6660156C26.7363281,9.0141602,25.4873047,10,24,10c-1.487793,0-2.7363281-0.9858398-3.1640625-2.3339844H27.1640625z   M36,40.3339844H12V7.6660156h6.7670898C19.2373047,10.1298828,21.4008789,12,24,12  c2.5986328,0,4.7626953-1.8701172,5.2324219-4.3339844H36V40.3339844z">
  </path>
</svg>