<svg height='300px' width='300px' fill="#FFFFFF" xmlns="http://www.w3.org/2000/svg"
  xmlns:xlink="http://www.w3.org/1999/xlink" version="1.1" x="0px" y="0px" viewBox="0 0 64 64"
  style="enable-background:new 0 0 64 64;" xml:space="preserve">
  <style type="text/css">
    .st0 {
      display: none;
    }

    .st1 {
      display: inline;
    }

    .st2 {
      fill: none;
      stroke: #FFFFFF;
      stroke-width: 0.1;
      stroke-miterlimit: 10;
    }
  </style>
  <g class="st0">
    <g class="st1">
      <rect x="2" y="2" class="st2" width="60" height="60"></rect>
      <line class="st2" x1="32" y1="2" x2="32" y2="62"></line>
      <line class="st2" x1="62" y1="32" x2="2" y2="32"></line>
      <line class="st2" x1="2" y1="2" x2="62" y2="62"></line>
      <rect x="10" y="10" class="st2" width="44" height="44"></rect>
      <line class="st2" x1="62" y1="2" x2="2" y2="62"></line>
      <line class="st2" x1="2" y1="32" x2="32" y2="2"></line>
      <line class="st2" x1="32" y1="2" x2="62" y2="32"></line>
      <line class="st2" x1="62" y1="32" x2="32" y2="62"></line>
      <line class="st2" x1="32" y1="62" x2="2" y2="32"></line>
      <circle class="st2" cx="32" cy="32" r="21"></circle>
    </g>
  </g>
  <path
    d="M25,28v1c0,1.1-0.9,2-2,2v2c1.1,0,2,0.9,2,2v1c0,1.7,1.3,3,3,3h2v-2h-2c-0.6,0-1-0.4-1-1v-1.8c0-0.9-0.4-1.7-1-2.2  c0.6-0.6,1-1.4,1-2.2V28c0-0.6,0.4-1,1-1h2v-2h-2C26.3,25,25,26.3,25,28z">
  </path>
  <path
    d="M39,29v-1c0-1.7-1.3-3-3-3h-2v2h2c0.6,0,1,0.4,1,1v1.8c0,0.8,0.4,1.6,1,2.2c-0.6,0.5-1,1.3-1,2.2V36c0,0.6-0.4,1-1,1h-2v2h2  c1.7,0,3-1.3,3-3v-1c0-1.1,0.9-2,2-2v-2C39.9,31,39,30.1,39,29z">
  </path>
  <path
    d="M42,19H22c-1.7,0-3,1.3-3,3v20c0,1.7,1.3,3,3,3h20c1.7,0,3-1.3,3-3V22C45,20.3,43.7,19,42,19z M43,42c0,0.6-0.4,1-1,1H22  c-0.6,0-1-0.4-1-1V22c0-0.6,0.4-1,1-1h20c0.6,0,1,0.4,1,1V42z">
  </path>
  <path
    d="M58.3,27c0.3,1,1,1,1.7,1c1.1,0,2-0.9,2-2s-0.9-2-2-2c-0.7,0-1.4,0-1.7,1H51v-4h4v-5h3.3c0.3,1,1,1,1.7,1c1.1,0,2-0.9,2-2  s-0.9-2-2-2c-0.7,0-1.4,0-1.7,1H53v5h-2v-1c0-2.8-2.2-5-5-5h-1v-2h5V5.7c0.6-0.3,1-1,1-1.7c0-1.1-0.9-2-2-2s-2,0.9-2,2  c0,0.7,0.4,1.4,1,1.7V9h-5v4h-4V5.7c0.6-0.3,1-1,1-1.7c0-1.1-0.9-2-2-2s-2,0.9-2,2c0,0.7,0.4,1.4,1,1.7V13h-4V5.7c0.6-0.3,1-1,1-1.7  c0-1.1-0.9-2-2-2s-2,0.9-2,2c0,0.7,0.4,1.4,1,1.7V13h-4V5.7c0.6-0.3,1-1,1-1.7c0-1.1-0.9-2-2-2s-2,0.9-2,2c0,0.7,0.4,1.4,1,1.7V13  h-4V9h-5V5.7c0.6-0.3,1-1,1-1.7c0-1.1-0.9-2-2-2s-2,0.9-2,2c0,0.7,0.4,1.4,1,1.7V11h5v2h-1c-2.8,0-5,2.2-5,5v1h-2v-5H5.7  c-0.3-1-1-1-1.7-1c-1.1,0-2,0.9-2,2s0.9,2,2,2c0.7,0,1.4,0,1.7-1H9v5h4v4H5.7c-0.3-1-1-1-1.7-1c-1.1,0-2,0.9-2,2s0.9,2,2,2  c0.7,0,1.4,0,1.7-1H13v4H5.7c-0.3-1-1-1-1.7-1c-1.1,0-2,0.9-2,2s0.9,2,2,2c0.7,0,1.4,0,1.7-1H13v4H5.7c-0.3-1-1-1-1.7-1  c-1.1,0-2,0.9-2,2s0.9,2,2,2c0.7,0,1.4,0,1.7-1H13v4H9v5H5.7c-0.3-1-1-1-1.7-1c-1.1,0-2,0.9-2,2s0.9,2,2,2c0.7,0,1.4,0,1.7-1H11v-5  h2v1c0,2.8,2.2,5,5,5h1v2h-5v5.3c-1,0.3-1,1-1,1.7c0,1.1,0.9,2,2,2s2-0.9,2-2c0-0.7,0-1.4-1-1.7V55h5v-4h4v7.3c-1,0.3-1,1-1,1.7  c0,1.1,0.9,2,2,2s2-0.9,2-2c0-0.7,0-1.4-1-1.7V51h4v7.3c-1,0.3-1,1-1,1.7c0,1.1,0.9,2,2,2s2-0.9,2-2c0-0.7,0-1.4-1-1.7V51h4v7.3  c-1,0.3-1,1-1,1.7c0,1.1,0.9,2,2,2s2-0.9,2-2c0-0.7,0-1.4-1-1.7V51h4v4h5v3.3c-1,0.3-1,1-1,1.7c0,1.1,0.9,2,2,2s2-0.9,2-2  c0-0.7,0-1.4-1-1.7V53h-5v-2h1c2.8,0,5-2.2,5-5v-1h2v5h5.3c0.3,1,1,1,1.7,1c1.1,0,2-0.9,2-2s-0.9-2-2-2c-0.7,0-1.4,0-1.7,1H55v-5h-4  v-4h7.3c0.3,1,1,1,1.7,1c1.1,0,2-0.9,2-2s-0.9-2-2-2c-0.7,0-1.4,0-1.7,1H51v-4h7.3c0.3,1,1,1,1.7,1c1.1,0,2-0.9,2-2s-0.9-2-2-2  c-0.7,0-1.4,0-1.7,1H51v-4H58.3z M49,46c0,1.7-1.3,3-3,3H18c-1.7,0-3-1.3-3-3V18c0-1.7,1.3-3,3-3h28c1.7,0,3,1.3,3,3V46z">
  </path>
</svg>