<svg height='300px' width='300px' fill="#FFFFFF" xmlns="http://www.w3.org/2000/svg"
  xmlns:xlink="http://www.w3.org/1999/xlink" version="1.1" x="0px" y="0px" viewBox="0 0 100 100"
  enable-background="new 0 0 100 100" xml:space="preserve">
  <path
    d="M76.9,71.1c0-14.8-12.1-26.9-26.9-26.9c-14.8,0-26.9,12.1-26.9,26.9S35.2,97.9,50,97.9C64.8,97.9,76.9,85.9,76.9,71.1z   M50,91.8c-11.4,0-20.7-9.3-20.7-20.7c0-11.4,9.3-20.7,20.7-20.7c11.4,0,20.7,9.3,20.7,20.7C70.7,82.5,61.4,91.8,50,91.8z M65,71  c0,8.3-6.7,15-15,15c-8.3,0-15-6.7-15-15c0-8.3,6.7-15,15-15C58.3,56.1,65,62.8,65,71z M52.4,38.2L32.1,2.1h5.9L59,39.4  C56.8,38.8,54.6,38.4,52.4,38.2z M40.1,39.6L19,2.1h6.1l20.4,36.4C43.6,38.7,41.8,39.1,40.1,39.6z M74.9,2.1H81L63.3,33.7l-3.1-5.5  L74.9,2.1z M56.7,22l-3-5.3l8.2-14.6h5.9L56.7,22z">
  </path>
</svg>