<svg height='300px' width='300px' fill="#ffffff" xmlns="http://www.w3.org/2000/svg"
  xmlns:xlink="http://www.w3.org/1999/xlink" version="1.1" x="0px" y="0px" viewBox="0 0 66 66"
  style="enable-background:new 0 0 66 66;" xml:space="preserve">
  <g>
    <path
      d="M37.4,30.4l-0.6-1.5l-4.1,3.8c-0.5,0.4-1.3,0.3-1.6-0.3l-5.6-10.6l-7.4,11.7c-0.4,0.6-1.3,0.6-1.7,0L13.9,30L1.1,61.3   c-0.3,0.7,0.2,1.4,0.9,1.4h23c-0.3-0.7-0.2-1.5,0.1-2.2L37.4,30.4z">
    </path>
    <path
      d="M24.7,19.3c0.5-0.7,1.4-0.5,1.7,0.1l5.8,11l3.7-3.4L26.5,4c-0.2-0.4-0.5-0.6-0.9-0.6c-0.4,0-0.8,0.3-0.9,0.6l-9.8,23.8   l2.4,3.4L24.7,19.3z">
    </path>
    <path d="M53,32.5l-6.3-15.2c-0.2-0.4-0.5-0.6-0.9-0.6c-0.4,0-0.8,0.3-0.9,0.6l-5.2,12.6l6,8.3L53,32.5z"></path>
    <path
      d="M64.8,61.1l-11-26.7l-7.7,6.1c-0.4,0.4-1.1,0.3-1.4-0.2l-5.9-8.2l-12,29.2c-0.3,0.7,0.2,1.4,0.9,1.4H64c0,0,0,0,0,0   C64.8,62.6,65.3,61.8,64.8,61.1z">
    </path>
    <path
      d="M46.7,5.5c2.9,0,5.2,2.4,5.2,5.2c0,0.6,0.4,1,1,1s1-0.4,1-1c0-2.9,2.3-5.2,5.2-5.2c0.6,0,1-0.4,1-1s-0.4-1-1-1   c-2.6,0-5,1.4-6.2,3.6c-1.3-2.1-3.6-3.6-6.2-3.6c-0.6,0-1,0.4-1,1S46.1,5.5,46.7,5.5z">
    </path>
  </g>
</svg>