<svg height='300px' width='300px' fill="#FFFFFF" xmlns:dc="http://purl.org/dc/elements/1.1/"
  xmlns:cc="http://creativecommons.org/ns#" xmlns:rdf="http://www.w3.org/1999/02/22-rdf-syntax-ns#"
  xmlns:svg="http://www.w3.org/2000/svg" xmlns="http://www.w3.org/2000/svg"
  xmlns:sodipodi="http://sodipodi.sourceforge.net/DTD/sodipodi-0.dtd"
  xmlns:inkscape="http://www.inkscape.org/namespaces/inkscape" viewBox="0 0 32 32.000001" version="1.1" x="0px" y="0px">
  <g transform="translate(0,-1020.3622)">
    <path
      style="color:#000000;font-style:normal;font-variant:normal;font-weight:normal;font-stretch:normal;font-size:medium;line-height:normal;font-family:sans-serif;text-indent:0;text-align:start;text-decoration:none;text-decoration-line:none;text-decoration-style:solid;text-decoration-color:#000000;letter-spacing:normal;word-spacing:normal;text-transform:none;direction:ltr;block-progression:tb;writing-mode:lr-tb;baseline-shift:baseline;text-anchor:start;white-space:normal;clip-rule:nonzero;display:inline;overflow:visible;visibility:visible;opacity:1;isolation:auto;mix-blend-mode:normal;color-interpolation:sRGB;color-interpolation-filters:linearRGB;solid-color:#000000;solid-opacity:1;fill:#FFFFFF;fill-opacity:1;fill-rule:nonzero;stroke:none;stroke-width:1;stroke-linecap:round;stroke-linejoin:round;stroke-miterlimit:0;stroke-dasharray:none;stroke-dashoffset:0.5;stroke-opacity:1;color-rendering:auto;image-rendering:auto;shape-rendering:auto;text-rendering:auto;enable-background:accumulate"
      d="M 16 1 C 14.941094 1 14 1.7559969 14 2.7792969 C 14 2.8549967 14.016924 2.9263774 14.027344 3 L 12.5 3 A 0.50004997 0.50004997 0 0 0 12 3.5 L 12 4.0058594 A 0.50005 0.50005 0 0 0 11.921875 4 L 5.5 4 A 0.50005 0.50005 0 0 0 5 4.5 L 5 30.5 A 0.50005 0.50005 0 0 0 5.5 31 L 26.5 31 A 0.50005 0.50005 0 0 0 27 30.5 L 27 4.5 A 0.50005 0.50005 0 0 0 26.5 4 L 20 4 L 20 3.5 A 0.50004997 0.50004997 0 0 0 19.5 3 L 17.972656 3 C 17.983082 2.9263653 18 2.8550263 18 2.7792969 C 18 1.7559969 17.058899 1 16 1 z M 16 2 C 16.597941 2 17 2.3896969 17 2.7792969 C 17 2.8762969 16.977264 2.9685406 16.933594 3.0566406 C 16.912104 3.0996406 16.885062 3.1436469 16.851562 3.1855469 A 0.50005 0.50005 0 0 0 17.316406 4 L 19 4 L 19 5 L 13 5 L 13 4 L 14.681641 4 A 0.50005 0.50005 0 0 0 15.148438 3.1855469 C 15.115597 3.1445469 15.088336 3.1005406 15.066406 3.0566406 C 15.022765 2.9686406 15 2.8766969 15 2.7792969 C 15 2.3896969 15.402046 2 16 2 z M 12 4.9941406 L 12 5.5 A 0.50004997 0.50004997 0 0 0 12.5 6 L 19.5 6 A 0.50004997 0.50004997 0 0 0 20 5.5 L 20 5 L 24 5 L 24 23 L 20.5 23 A 0.50005 0.50005 0 0 0 20 23.5 L 20 27 L 8 27 L 8 5 L 11.921875 5 A 0.50005 0.50005 0 0 0 12 4.9941406 z M 6 5 L 7 5 L 7 27.5 A 0.50005 0.50005 0 0 0 7.5 28 L 20.373047 28 A 0.50005 0.50005 0 0 0 20.433594 27.996094 A 0.50005 0.50005 0 0 0 20.853516 27.855469 L 24.853516 23.853516 A 0.50005 0.50005 0 0 0 24.998047 23.464844 A 0.50005 0.50005 0 0 0 25 23.412109 L 25 5 L 26 5 L 26 30 L 6 30 L 6 5 z M 9.5 7 A 0.50005 0.50005 0 0 0 9 7.5 L 9 10.5 A 0.50005 0.50005 0 0 0 9.5 11 L 12.5 11 A 0.50005 0.50005 0 0 0 13 10.5 L 13 7.5 A 0.50005 0.50005 0 0 0 12.5 7 L 9.5 7 z M 14.216797 7 A 0.50004997 0.50004997 0 0 0 14.267578 8 L 18.71875 8 A 0.50004997 0.50004997 0 1 0 18.71875 7 L 14.267578 7 A 0.50004997 0.50004997 0 0 0 14.216797 7 z M 10 8 L 12 8 L 12 10 L 10 10 L 10 8 z M 14.441406 9 A 0.50005 0.50005 0 0 0 14.492188 10 L 22.492188 10 A 0.50005 0.50005 0 1 0 22.492188 9 L 14.492188 9 A 0.50005 0.50005 0 0 0 14.441406 9 z M 9.5 13 A 0.50005 0.50005 0 0 0 9 13.5 L 9 16.5 A 0.50005 0.50005 0 0 0 9.5 17 L 12.5 17 A 0.50005 0.50005 0 0 0 13 16.5 L 13 13.5 A 0.50005 0.50005 0 0 0 12.5 13 L 9.5 13 z M 14.216797 13 A 0.50004997 0.50004997 0 0 0 14.267578 14 L 18.71875 14 A 0.50004997 0.50004997 0 1 0 18.71875 13 L 14.267578 13 A 0.50004997 0.50004997 0 0 0 14.216797 13 z M 10 14 L 12 14 L 12 16 L 10 16 L 10 14 z M 14.441406 15 A 0.50005 0.50005 0 0 0 14.492188 16 L 22.492188 16 A 0.50005 0.50005 0 1 0 22.492188 15 L 14.492188 15 A 0.50005 0.50005 0 0 0 14.441406 15 z M 9.5 19 A 0.50005 0.50005 0 0 0 9 19.5 L 9 22.5 A 0.50005 0.50005 0 0 0 9.5 23 L 12.5 23 A 0.50005 0.50005 0 0 0 13 22.5 L 13 19.5 A 0.50005 0.50005 0 0 0 12.5 19 L 9.5 19 z M 14.216797 19 A 0.50004997 0.50004997 0 0 0 14.267578 20 L 18.71875 20 A 0.50004997 0.50004997 0 1 0 18.71875 19 L 14.267578 19 A 0.50004997 0.50004997 0 0 0 14.216797 19 z M 10 20 L 12 20 L 12 22 L 10 22 L 10 20 z M 14.441406 21 A 0.50005 0.50005 0 0 0 14.492188 22 L 22.492188 22 A 0.50005 0.50005 0 1 0 22.492188 21 L 14.492188 21 A 0.50005 0.50005 0 0 0 14.441406 21 z M 14.441406 23 C 13.77474 23.034 13.825524 24.0339 14.492188 24 L 19 24 L 19 23 L 14.492188 23 C 14.475267 22.9991 14.458316 22.9991 14.441406 23 z M 21 24 L 23.292969 24 L 21 26.292969 L 21 24 z "
      transform="translate(0,1020.3622)"></path>
  </g>
</svg>