<?xml version="1.0" standalone="no"?>
<!DOCTYPE svg PUBLIC "-//W3C//DTD SVG 20010904//EN" "http://www.w3.org/TR/2001/REC-SVG-20010904/DTD/svg10.dtd">
<svg version="1.0" xmlns="http://www.w3.org/2000/svg" width="1314.000000pt" height="1314.000000pt"
  viewBox="0 0 1314.000000 838.000000" preserveAspectRatio="xMidYMid meet">
  <g transform="translate(0.000000,838.000000) scale(0.100000,-0.100000)" fill="#fff" stroke="none">
    <path d="M4816 8250 l-1809 -5 -95 -275 c-51 -151 -150 -439 -219 -640 -68
-201 -149 -437 -180 -525 -30 -88 -60 -178 -68 -200 -17 -51 -122 -358 -265
-775 -62 -179 -140 -408 -175 -510 -35 -102 -120 -351 -190 -555 -70 -203
-155 -453 -190 -555 -34 -102 -120 -351 -190 -555 -166 -483 -223 -651 -239
-700 -8 -22 -71 -206 -141 -410 -70 -203 -158 -460 -195 -570 -37 -110 -123
-360 -190 -555 -67 -195 -153 -445 -190 -555 -38 -110 -111 -325 -163 -477
l-96 -278 362 0 362 0 63 188 c83 245 173 507 322 942 67 195 153 445 190 555
38 110 121 353 185 540 64 187 150 437 190 555 41 118 124 361 185 540 62 179
143 415 180 525 38 110 123 360 190 555 67 195 153 445 190 555 38 110 123
360 190 555 67 195 153 447 191 560 38 112 75 211 82 220 7 8 35 53 62 100
190 334 531 595 901 689 210 53 89 51 2780 51 2745 0 2587 3 2814 -61 404
-115 737 -396 920 -774 57 -119 91 -218 122 -363 l23 -107 0 -1025 c0 -1127 3
-1063 -62 -1280 -90 -300 -295 -588 -549 -769 -166 -118 -406 -221 -581 -251
-40 -6 -85 -14 -100 -17 -15 -3 -388 -9 -827 -12 l-800 -6 410 -421 c225 -231
537 -552 694 -714 157 -162 452 -466 655 -675 204 -209 430 -442 503 -518 73
-75 138 -137 145 -137 7 0 33 60 59 138 26 75 99 290 163 477 64 187 150 437
190 555 41 118 126 368 190 555 64 187 145 423 180 525 35 102 118 345 185
540 315 919 380 1110 580 1695 38 110 123 360 190 555 67 195 153 445 190 555
38 110 123 360 190 555 67 195 153 445 190 555 38 110 116 340 175 510 260
755 308 902 302 918 -6 16 -221 17 -3189 15 -1751 -2 -3997 -5 -4992 -8z" />
    <path d="M5329 5716 c-2 -2 -22 -6 -44 -9 -182 -22 -376 -134 -499 -288 -110
-138 -166 -296 -168 -474 -1 -115 5 -164 34 -255 79 -251 272 -437 543 -523
l70 -22 1200 0 1200 0 3 191 2 190 -64 41 c-72 46 -133 121 -162 198 -14 36
-19 76 -19 145 1 83 4 102 28 151 37 76 99 144 164 181 l53 30 -2 222 -3 221
-1166 3 c-641 1 -1167 0 -1170 -2z m5 -557 c58 -16 101 -48 138 -104 30 -46
33 -57 33 -125 0 -69 -3 -80 -34 -128 -50 -78 -105 -107 -202 -107 -67 0 -81
4 -125 30 -127 79 -153 260 -51 365 42 43 70 61 110 70 47 12 87 11 131 -1z" />
    <path d="M7900 5508 l0 -214 65 -28 c76 -33 155 -100 191 -162 l26 -44 343 0
343 0 -9 43 c-25 110 -89 240 -165 332 -92 111 -268 223 -399 255 -27 6 -59
14 -70 17 -11 3 -89 7 -172 10 l-153 5 0 -214z" />
    <path d="M7720 5119 c-80 -32 -143 -126 -144 -215 -1 -79 44 -160 114 -201 46
-28 63 -33 120 -33 116 0 198 67 230 188 23 89 -35 209 -123 251 -47 23 -151
28 -197 10z" />
    <path d="M8165 4714 c-49 -91 -135 -159 -247 -197 -16 -6 -18 -24 -18 -193 l0
-187 168 6 c189 6 252 20 382 88 144 75 261 190 335 330 39 75 78 186 69 200
-3 5 -151 9 -332 9 l-327 0 -30 -56z" />
    <path d="M4302 4027 c-111 -304 -215 -588 -231 -632 -16 -44 -90 -246 -164
-450 -74 -203 -140 -390 -147 -415 -14 -53 -14 -223 1 -289 5 -25 29 -84 52
-131 89 -181 255 -297 474 -331 212 -32 457 83 582 274 31 48 92 203 257 653
118 324 224 612 234 639 145 391 220 600 220 611 0 8 -55 13 -202 17 -234 6
-277 15 -439 98 -110 56 -231 162 -304 263 -44 62 -115 199 -115 223 0 51 -40
-47 -218 -530z m53 -1512 c121 -49 178 -199 121 -320 -41 -90 -117 -139 -216
-139 -100 0 -181 53 -221 143 -62 140 28 308 176 331 47 8 98 2 140 -15z" />
    <path d="M5164 2218 c-114 -346 -286 -533 -577 -629 -91 -30 -321 -38 -420
-14 -253 61 -455 226 -563 460 -19 42 -37 75 -39 73 -2 -1 -14 -34 -28 -73
-14 -38 -113 -315 -222 -615 -411 -1139 -468 -1300 -463 -1305 3 -3 1002 -4
2221 -3 l2217 3 -467 480 c-256 264 -590 608 -742 765 -644 664 -885 910 -892
910 -4 0 -15 -24 -25 -52z" />
  </g>
</svg>