<?xml version="1.0" standalone="no"?>
<!DOCTYPE svg PUBLIC "-//W3C//DTD SVG 20010904//EN"
 "http://www.w3.org/TR/2001/REC-SVG-20010904/DTD/svg10.dtd">
<svg version="1.0" xmlns="http://www.w3.org/2000/svg"
 width="512.000000pt" height="512.000000pt" viewBox="0 0 512.000000 512.000000"
 preserveAspectRatio="xMidYMid meet">
<metadata>
Created by potrace 1.15, written by Peter Selinger 2001-2017
</metadata>
<g transform="translate(0.000000,512.000000) scale(0.100000,-0.100000)"
fill="#fff" stroke="none">
<path d="M1007 4242 c-141 -141 -257 -262 -257 -267 0 -6 42 -52 93 -103 l94
-93 167 117 168 117 133 -133 133 -133 -16 -41 c-22 -58 -23 -257 0 -307 l16
-36 -132 -132 c-72 -72 -134 -131 -138 -131 -4 0 -77 50 -164 110 -86 61 -162
110 -168 110 -14 0 -186 -171 -186 -185 0 -13 512 -525 525 -525 6 0 120 110
254 244 l244 244 49 -19 c131 -51 278 -46 405 16 l71 35 342 -2 341 -3 -644
-1047 -645 -1048 728 0 728 0 194 338 c107 185 200 347 206 358 10 19 -2 44
-98 199 l-110 177 215 349 c118 192 215 351 215 354 0 3 -26 5 -58 5 -182 0
-364 80 -502 220 -222 225 -277 573 -134 857 l41 83 -404 0 -404 0 -57 29
c-32 16 -84 37 -116 46 -80 23 -217 17 -305 -15 l-63 -22 -247 246 c-135 135
-248 246 -251 246 -3 0 -121 -116 -263 -258z m1091 -559 c43 -31 74 -100 67
-148 -17 -113 -149 -175 -241 -113 -105 69 -93 222 21 274 40 19 119 12 153
-13z"/>
<path d="M3586 4174 c-81 -20 -190 -74 -253 -126 -151 -126 -233 -300 -233
-498 0 -105 18 -181 69 -285 74 -149 203 -260 370 -318 72 -25 103 -30 186
-31 120 -1 183 13 295 66 120 57 231 168 288 288 53 113 67 175 65 295 -2 179
-78 346 -211 465 -64 58 -188 122 -277 145 -73 19 -220 18 -299 -1z m250 -389
c44 -18 102 -72 125 -117 70 -138 -3 -312 -148 -354 -218 -63 -399 153 -297
353 60 117 198 168 320 118z"/>
<path d="M1290 853 c-30 -54 -72 -128 -93 -165 l-39 -68 1161 0 1161 0 0 165
0 165 -1067 0 -1068 0 -55 -97z"/>
</g>
</svg>
