<?xml version="1.0" standalone="no"?>
<!DOCTYPE svg PUBLIC "-//W3C//DTD SVG 20010904//EN" "http://www.w3.org/TR/2001/REC-SVG-20010904/DTD/svg10.dtd">
<svg version="1.0" xmlns="http://www.w3.org/2000/svg" width="568.000000pt" height="436.000000pt"
  viewBox="0 0 568.000000 436.000000" preserveAspectRatio="xMidYMid meet">
  <metadata>
    Created by potrace 1.15, written by Peter Selinger 2001-2017
  </metadata>
  <g transform="translate(0.000000,436.000000) scale(0.100000,-0.100000)" fill="#fff" stroke="none">
    <path d="M3618 4260 c-138 -25 -281 -90 -418 -189 -62 -45 -346 -324 -1028
-1009 -519 -521 -973 -983 -1009 -1027 -120 -149 -204 -311 -244 -470 -29
-113 -36 -348 -15 -475 61 -375 316 -716 662 -889 151 -75 320 -111 519 -111
297 0 552 87 803 274 131 97 562 526 1164 1156 229 239 488 507 577 595 89 88
161 164 161 170 0 6 -43 53 -95 105 l-95 95 -116 -115 c-64 -63 -356 -362
-649 -665 -1012 -1044 -1083 -1111 -1274 -1213 -318 -169 -702 -161 -983 20
-79 51 -188 155 -243 233 -92 130 -148 284 -164 452 -22 238 36 441 182 639
24 33 480 496 1013 1029 1033 1032 1043 1042 1183 1086 92 29 261 36 361 15
121 -25 212 -76 305 -170 93 -93 145 -182 175 -302 23 -87 26 -223 9 -306 -14
-66 -66 -178 -110 -239 -46 -62 -1451 -1455 -1514 -1501 -62 -44 -140 -83
-183 -91 -122 -24 -236 92 -217 219 16 111 25 121 693 793 l627 632 -95 97
-95 97 -155 -147 c-85 -80 -385 -377 -666 -660 -352 -354 -524 -533 -553 -578
-62 -96 -84 -180 -79 -293 3 -81 8 -102 39 -167 60 -125 154 -211 280 -258
170 -63 324 -26 543 130 155 110 249 198 912 857 705 702 728 728 799 904 53
131 68 227 62 386 -6 160 -26 242 -92 376 -119 241 -353 433 -605 495 -94 24
-294 35 -372 20z" />
    <path d="M3491 3685 c5 -13 -229 -243 -239 -236 -4 3 49 -52 118 -121 68 -70
126 -125 129 -122 7 6 211 -198 206 -206 -6 -9 211 -223 228 -226 17 -2 230
208 233 229 1 8 -151 167 -338 353 -187 187 -339 335 -337 329z" />
  </g>
</svg>