<svg height='300px' width='300px' fill="#ffffff" xmlns="http://www.w3.org/2000/svg" viewBox="0 0 64 64" x="0px" y="0px">
  <title>video-game-controller-joystick-buttons</title>
  <circle cx="46" cy="52" r="2"></circle>
  <circle cx="39" cy="46" r="2"></circle>
  <path d="M19,44V40H17v4a1,1,0,0,1-1,1H12v2h4a1,1,0,0,1,1,1v4h2V48a1,1,0,0,1,1-1h4V45H20A1,1,0,0,1,19,44Z"></path>
  <path
    d="M59.911,44.394c-.658-5.922-6.433-11.674-12.36-12.311A14.724,14.724,0,0,0,46,32H18a14.379,14.379,0,0,0-1.551.084c-5.928.637-11.7,6.389-12.36,12.311A14,14,0,0,0,25.364,57.9a11.763,11.763,0,0,1,5.288-1.847C31.1,56.019,31.545,56,32,56q.645,0,1.278.046a11.8,11.8,0,0,1,5.369,1.863A14,14,0,0,0,59.911,44.394ZM26,48a1,1,0,0,1-1,1H21v4a1,1,0,0,1-1,1H16a1,1,0,0,1-1-1V49H11a1,1,0,0,1-1-1V44a1,1,0,0,1,1-1h4V39a1,1,0,0,1,1-1h4a1,1,0,0,1,1,1v4h4a1,1,0,0,1,1,1ZM46,36a4,4,0,1,1-4,4A4,4,0,0,1,46,36ZM39,50a4,4,0,1,1,4-4A4,4,0,0,1,39,50Zm7,6a4,4,0,1,1,4-4A4,4,0,0,1,46,56Zm7-6a4,4,0,1,1,4-4A4,4,0,0,1,53,50Z">
  </path>
  <circle cx="53" cy="46" r="2"></circle>
  <circle cx="46" cy="40" r="2"></circle>
  <rect x="31" y="28" width="2" height="2"></rect>
  <path
    d="M33,26H31V24a2,2,0,0,0-2-2H24a4,4,0,0,1,0-8H40a2,2,0,0,0,0-4H35a4,4,0,0,1-4-4V2h2V6a2,2,0,0,0,2,2h5a4,4,0,0,1,0,8H24a2,2,0,0,0,0,4h5a4,4,0,0,1,4,4Z">
  </path>
</svg>